<?xml version="1.0" standalone="no"?>
<!DOCTYPE svg PUBLIC "-//W3C//DTD SVG 20010904//EN"
 "http://www.w3.org/TR/2001/REC-SVG-20010904/DTD/svg10.dtd">
<svg version="1.0" xmlns="http://www.w3.org/2000/svg"
 width="128.000000pt" height="128.000000pt" viewBox="0 0 128.000000 128.000000"
 preserveAspectRatio="xMidYMid meet">

<g transform="translate(0.000000,128.000000) scale(0.100000,-0.100000)"
fill="#000000" stroke="none">
<path d="M394 1117 c-132 -78 -253 -150 -267 -160 l-27 -17 0 -159 c0 -174 19
-278 64 -355 47 -79 230 -241 414 -365 l62 -42 63 42 c183 124 366 286 413
365 45 77 64 181 64 355 l0 158 -27 19 c-32 22 -511 302 -515 301 -2 0 -111
-64 -244 -142z m256 93 c0 -5 -4 -10 -10 -10 -5 0 -10 5 -10 10 0 6 5 10 10
10 6 0 10 -4 10 -10z m132 -132 l141 -82 -74 -16 c-41 -8 -79 -19 -85 -23 -7
-4 -19 4 -29 19 -15 24 -18 24 -34 10 -13 -12 -20 -13 -29 -4 -9 9 -20 2 -48
-30 -19 -23 -67 -60 -105 -82 -50 -30 -75 -52 -94 -84 -14 -23 -25 -48 -25
-55 0 -33 -38 -86 -87 -122 -29 -22 -53 -47 -53 -55 0 -49 88 -124 145 -124
18 0 54 7 81 15 27 8 52 15 56 15 4 0 15 -24 26 -52 20 -53 20 -53 58 -49 50
4 109 35 145 73 l27 31 35 -22 c20 -12 50 -38 68 -58 l32 -37 -44 -38 c-47
-41 -184 -143 -225 -168 -21 -13 -27 -13 -48 0 -80 49 -204 147 -287 230 -90
88 -98 100 -119 165 -24 80 -40 318 -23 349 7 14 433 273 451 276 2 0 67 -37
144 -82z m-622 -159 c0 -5 -4 -9 -10 -9 -5 0 -10 7 -10 16 0 8 5 12 10 9 6 -3
10 -10 10 -16z m984 0 c-3 -5 -10 -7 -15 -3 -5 3 -7 10 -3 15 3 5 10 7 15 3 5
-3 7 -10 3 -15z m-265 -3 c-2 -2 -25 -13 -51 -24 -37 -16 -48 -18 -48 -7 0 7
17 17 38 23 39 11 68 14 61 8z m-233 -199 c10 -14 22 -27 26 -27 9 0 20 36 29
100 7 49 7 45 6 -33 -1 -48 1 -87 5 -87 4 0 14 9 22 21 8 12 19 18 25 14 12
-7 44 -67 55 -102 11 -34 -16 -29 -42 7 -13 17 -26 30 -30 30 -5 0 -8 -33 -8
-73 1 -55 -4 -80 -18 -102 -21 -31 -21 -31 -60 37 l-19 33 -9 -32 c-11 -41
-19 -41 -38 0 -9 20 -21 30 -30 28 -8 -2 -49 -7 -90 -11 -41 -4 -82 -10 -91
-14 -22 -10 -31 7 -23 39 8 32 94 81 112 63 8 -8 18 -6 38 7 20 13 40 16 76
13 l50 -5 -6 30 c-3 17 -14 39 -23 50 -17 18 -17 19 0 28 28 16 10 29 -41 29
-49 0 -112 -29 -112 -52 0 -6 -3 -9 -6 -6 -8 9 21 71 43 90 10 10 39 28 64 41
l44 24 16 -57 c8 -31 24 -68 35 -83z m-126 -32 c-13 -16 -50 -21 -50 -7 0 15
13 22 38 22 21 0 22 -2 12 -15z m-340 -175 c0 -5 -4 -10 -10 -10 -5 0 -10 5
-10 10 0 6 5 10 10 10 6 0 10 -4 10 -10z m950 0 c0 -5 -7 -10 -16 -10 -8 0
-12 5 -9 10 3 6 10 10 16 10 5 0 9 -4 9 -10z m-480 -435 c0 -8 -4 -15 -10 -15
-5 0 -10 7 -10 15 0 8 5 15 10 15 6 0 10 -7 10 -15z"/>
</g>
</svg>
